<?xml version="1.0" encoding="UTF-8" standalone="no"?>
<!-- Created with Inkscape (http://www.inkscape.org/) -->

<svg
   width="111.13357mm"
   height="130.71365mm"
   viewBox="0 0 111.13357 130.71365"
   version="1.1"
   id="svg1"
   xml:space="preserve"
   xmlns:inkscape="http://www.inkscape.org/namespaces/inkscape"
   xmlns:sodipodi="http://sodipodi.sourceforge.net/DTD/sodipodi-0.dtd"
   xmlns="http://www.w3.org/2000/svg"
   xmlns:svg="http://www.w3.org/2000/svg"><sodipodi:namedview
     id="namedview1"
     pagecolor="#ffffff"
     bordercolor="#000000"
     borderopacity="0.25"
     inkscape:showpageshadow="2"
     inkscape:pageopacity="0.0"
     inkscape:pagecheckerboard="0"
     inkscape:deskcolor="#d1d1d1"
     inkscape:document-units="mm"><inkscape:page
       x="0"
       y="0"
       width="111.13357"
       height="130.71365"
       id="page3"
       margin="0 54.090797 150.32471 0"
       bleed="0" /></sodipodi:namedview><defs
     id="defs1" /><g
     inkscape:label="Layer 1"
     inkscape:groupmode="layer"
     id="layer1"
     transform="translate(-210.85105,-6.0707433)"><path
       style="fill:#000000"
       d="m 212.12003,118.70101 0.0362,-17.53853 0.28134,-1.374656 c 0.85488,-4.177023 2.52883,-7.685773 5.17353,-10.844176 2.44525,-2.92023 5.88521,-5.3054 9.57832,-6.64134 1.02638,-0.37128 3.04776,-0.92828 3.36878,-0.92828 0.0871,0 0.51472,0.42694 0.9502,0.94876 7.12654,8.539573 16.68008,14.198343 27.20649,16.115006 2.86611,0.52187 4.48347,0.65597 7.91538,0.6563 3.42549,3.3e-4 4.85669,-0.11787 7.91538,-0.65368 7.13113,-1.249213 14.28945,-4.444983 20.11376,-8.979603 2.48129,-1.931853 5.21528,-4.544573 7.1086,-6.793273 0.77956,-0.92589 1.14858,-1.28684 1.27689,-1.24898 0.0993,0.0293 0.58454,0.15466 1.07841,0.27861 3.7387,0.93833 7.4316,3.06181 10.27319,5.90726 3.31872,3.323243 5.43379,7.332993 6.42649,12.183396 l 0.28134,1.374656 0.0362,17.53853 0.0362,17.53854 h -54.54646 -54.5465 z m 52.39589,-35.279682 c -8.57923,-0.36552 -16.70745,-3.65313 -23.31243,-9.42915 -5.7725,-5.04802 -9.97915,-11.976387 -11.81936,-19.466519 -1.70659,-6.946236 -1.38211,-14.474363 0.91393,-21.204017 1.93944,-5.684448 4.86917,-10.377332 9.16597,-14.68215 6.76103,-6.773662 15.31256,-10.5834375 24.9149,-11.0997987 8.10815,-0.436012 16.22078,1.7846152 22.98342,6.2911337 3.60388,2.40157 7.34732,6.025242 9.93154,9.61379 3.45925,4.803641 5.87387,10.865521 6.68537,16.783531 0.53255,3.883749 0.4831,7.646428 -0.15102,11.490303 -1.99056,12.066228 -9.80955,22.520797 -20.87923,27.917097 -5.80086,2.82784 -11.8341,4.06693 -18.43309,3.78578 z"
       id="path2" /></g></svg>
